HIERARCHY
ROOT Hips
{
	OFFSET 0.000000 0.000000 0.000000 
	CHANNELS 6 Xposition Yposition Zposition Yrotation Zrotation Xrotation 
	JOINT Lumbar
	{
		OFFSET 0.000000 0.000000 0.000000 
		CHANNELS 3 Zrotation Xrotation Yrotation
		JOINT Neck
		{
			OFFSET 0.000000 0.445665 0.000000 
			CHANNELS 3 Zrotation Xrotation Yrotation
			End Site
			{
				OFFSET 0.000000 0.227535 0.000000 
			}
		}
		JOINT RightShoulder
		{
			OFFSET 0.019635 0.377685 0.194865 
			CHANNELS 3 Zrotation Xrotation Yrotation
			JOINT RightElbow
			{
				OFFSET 0.000000 -0.243375 0.000000 
				CHANNELS 2 Zrotation Yrotation
				JOINT RightWrist
				{
					OFFSET 0.000000 -0.264825 0.000000 
					CHANNELS 2 Zrotation Xrotation
					End Site
					{
						OFFSET 0.006600 -0.176220 0.000990 
					}
				}
			}
		}
		JOINT LeftShoulder
		{
			OFFSET 0.019635 0.377685 -0.194865 
			CHANNELS 3 Zrotation Xrotation Yrotation
			JOINT LeftElbow
			{
				OFFSET 0.000000 -0.243375 0.000000 
				CHANNELS 2 Zrotation Yrotation
				JOINT LeftWrist
				{
					OFFSET 0.000000 -0.264825 0.000000 
					CHANNELS 2 Zrotation Xrotation
					End Site
					{
						OFFSET 0.006600 -0.176220 -0.000990 
					}
				}
			}
		}
	}
	JOINT RightHip
	{
		OFFSET 0.052140 -0.069960 0.075570 
		CHANNELS 3 Zrotation Xrotation Yrotation
		JOINT RightKnee
		{
			OFFSET 0.000000 -0.402270 0.000000 
			CHANNELS 1 Zrotation
			JOINT RightAnkle
			{
				OFFSET 0.000000 -0.404085 0.000000 
				CHANNELS 3 Zrotation Xrotation Yrotation
				End Site
				{
					OFFSET 0.204105 -0.089430 0.008415 
				}
			}
		}
	}
	JOINT LeftHip
	{
		OFFSET 0.052140 -0.069960 -0.075570 
		CHANNELS 3 Zrotation Xrotation Yrotation
		JOINT LeftKnee
		{
			OFFSET 0.000000 -0.402270 0.000000 
			CHANNELS 1 Zrotation
			JOINT LeftAnkle
			{
				OFFSET 0.000000 -0.404085 0.000000 
				CHANNELS 3 Zrotation Xrotation Yrotation
				End Site
				{
					OFFSET 0.204105 -0.089430 -0.008415 
				}
			}
		}
	}
}
MOTION
Frames: 11
Frame Time: 0.02
0.44928 0.95631 0.11411 162.1274 0 -1.52074 -4.42277 3.72913 -12.03912 -29.47694 14.68323 9.59123 -13.89526 -36.04801 -16.80486 123.81473 79.38331 4.80552 -4.51901 -9.65815 -1.61678 -0.88674 116.30069 -80.52513 -12.67603 2.78631 1.3475 8.3362 6.49183 -21.06701 5.9149 -4.82792 -7.93256 16.91772 9.48375 -0.70341 -15.0179 -0.0371 2.79036 5.41916
0.44028 0.95601 0.11722 162.35288 0 -1.27767 -4.40612 3.50881 -12.15176 -29.24762 14.76881 9.76028 -14.13931 -34.57659 -18.97244 123.73612 79.96541 4.35097 -3.96786 -10.53884 -2.82521 1.4657 116.29022 -80.1492 -13.85069 2.69866 1.1851 7.85055 6.41914 -21.68069 6.3152 -5.03393 -8.11872 16.63768 8.7848 -1.57045 -14.70519 -0.71906 2.74288 5.77217
0.4309 0.95574 0.12105 162.69941 0 -0.98101 -4.41997 3.28991 -12.4495 -28.31446 14.96609 9.7687 -14.82191 -33.37006 -21.51229 123.67914 80.6716 3.41791 -2.91455 -11.97067 -3.78923 4.58196 116.46242 -79.22283 -15.76992 2.50259 1.08271 7.27364 6.23197 -22.43684 6.7359 -5.25378 -8.3108 16.53699 7.88973 -2.59843 -15.337 -1.63325 2.72124 6.46165
0.42163 0.95551 0.12459 162.97757 0 -0.71812 -4.40722 3.08461 -12.63284 -27.73567 15.09216 9.84674 -15.23979 -32.06554 -23.89925 123.56201 81.09634 2.66343 -2.08048 -13.04083 -4.82417 7.40322 116.46403 -78.45358 -17.33426 2.34525 0.94038 6.74333 6.11618 -23.10534 7.12694 -5.46101 -8.50332 16.34705 7.10146 -3.49254 -15.52783 -2.41244 2.68778 6.9545
0.41262 0.95509 0.12795 163.3138 0 -0.41544 -4.44274 2.81769 -12.93648 -27.02938 15.29825 9.94256 -15.90722 -30.65308 -26.23409 123.65707 82.4437 2.07847 -1.28115 -14.54045 -6.02834 10.03005 116.83095 -78.04291 -18.96104 2.22691 0.85074 6.19135 5.92053 -23.87187 7.60494 -5.69663 -8.68697 16.18871 6.23784 -4.6391 -15.77719 -3.31785 2.65292 7.62012
0.40297 0.95506 0.13188 163.55553 0 -0.18158 -4.38701 2.67912 -13.03611 -26.41814 15.36614 9.9632 -16.16521 -29.53349 -28.75339 123.31494 81.92738 1.02613 -0.29652 -15.29036 -6.82115 13.22041 116.48006 -76.77051 -20.6432 2.0045 0.66863 5.66078 5.86271 -24.47193 7.90746 -5.87525 -8.88618 16.00589 5.48275 -5.30285 -16.12416 -4.01443 2.62788 8.01422
0.39163 0.95615 0.13714 163.52731 0 -0.16747 -4.07335 2.90565 -12.53173 -26.1941 15.03203 9.79881 -15.23988 -29.15832 -31.76418 121.76866 76.01446 -1.21579 1.14031 -13.85788 -6.55171 17.93767 114.12979 -73.22554 -22.21924 1.51205 0.18393 5.23718 6.22101 -24.52451 7.70615 -5.89944 -9.15946 15.73303 5.10164 -4.55237 -16.52709 -4.08196 2.62235 7.52704
0.37966 0.95763 0.14295 163.39617 0 -0.22154 -3.66786 3.25942 -11.8167 -26.09374 14.55551 9.56672 -13.88501 -29.07049 -34.93109 119.78234 68.26619 -3.9082 2.73483 -11.65717 -5.87626 23.1623 111.04903 -68.84673 -23.83604 0.92151 -0.38948 4.83389 6.72026 -24.41452 7.32982 -5.86441 -9.44187 15.42625 4.83204 -3.31769 -16.99184 -3.93017 2.62627 6.76462
0.36797 0.95891 0.14856 163.29846 0 -0.23381 -3.30357 3.54831 -11.19523 -25.96719 14.13953 9.37581 -12.69116 -28.85282 -37.97921 117.98942 61.50035 -6.38652 4.21598 -9.79476 -5.37533 28.05277 108.28265 -64.86624 -25.48936 0.38193 -0.9021 4.40491 7.15009 -24.41158 7.04279 -5.85221 -9.69864 15.12083 4.49459 -2.33273 -17.41509 -3.8758 2.62689 6.16229
0.35629 0.96027 0.15401 163.26062 0 -0.29009 -2.94029 3.86775 -10.58604 -25.69781 13.74149 9.1353 -11.64245 -28.64135 -41.24917 116.21628 54.10241 -8.92645 5.8907 -7.98189 -4.90006 33.41736 105.58706 -60.76459 -26.95148 -0.19059 -1.50176 4.04211 7.59921 -24.26992 6.71566 -5.8579 -10.04661 14.87909 4.22278 -1.23038 -17.92593 -3.83949 2.62413 5.42627
0.34444 0.96156 0.1599 163.07294 0 -0.27128 -2.55547 4.15282 -9.90291 -25.7543 13.27522 8.98425 -10.20131 -28.48135 -44.08085 114.30811 47.59619 -11.43191 7.19312 -5.89474 -4.28812 37.89243 102.58044 -56.74913 -28.79275 -0.71368 -1.93853 3.54759 8.04233 -24.38143 6.42977 -5.81188 -10.20638 14.49668 3.84326 -0.2526 -18.25928 -3.70992 2.63039 4.89587
